# This file uses centimeters as units for non-parametric coordinates.

mtllib medicine jar.mtl
g default
v 0.453849 0.003856 -0.262030
v 0.262030 0.003856 -0.453849
v -0.000000 0.003856 -0.524060
v -0.262030 0.003856 -0.453849
v -0.453849 0.003856 -0.262030
v -0.524060 0.003856 0.000000
v -0.453849 0.003856 0.262030
v -0.262030 0.003856 0.453849
v -0.000000 0.003856 0.524060
v 0.262030 0.003856 0.453849
v 0.453849 0.003856 0.262030
v 0.524060 0.003856 0.000000
v 0.774412 0.746845 -0.447107
v 0.447107 0.746845 -0.774412
v 0.000000 0.746845 -0.894214
v -0.447107 0.746845 -0.774412
v -0.774412 0.746845 -0.447107
v -0.894214 0.746845 0.000000
v -0.774412 0.746845 0.447107
v -0.447107 0.746845 0.774412
v 0.000000 0.746845 0.894214
v 0.447107 0.746845 0.774412
v 0.774412 0.746845 0.447107
v 0.894214 0.746845 0.000000
v 0.831225 0.971051 -0.479908
v 0.479908 0.971051 -0.831225
v 0.000000 0.971051 -0.959816
v -0.479908 0.971051 -0.831225
v -0.831225 0.971051 -0.479908
v -0.959816 0.971051 0.000000
v -0.831225 0.971051 0.479908
v -0.479908 0.971051 0.831225
v 0.000000 0.971051 0.959816
v 0.479908 0.971051 0.831225
v 0.831225 0.971051 0.479908
v 0.959816 0.971051 0.000000
v 0.787434 1.182858 -0.454625
v 0.454625 1.182858 -0.787434
v 0.000000 1.182858 -0.909250
v -0.454625 1.182858 -0.787434
v -0.787434 1.182858 -0.454625
v -0.909250 1.182858 0.000000
v -0.787434 1.182858 0.454625
v -0.454625 1.182858 0.787434
v 0.000000 1.182858 0.909250
v 0.454625 1.182858 0.787434
v 0.787434 1.182858 0.454625
v 0.909250 1.182858 0.000000
v 0.504587 1.570950 -0.291323
v 0.291323 1.570950 -0.504587
v 0.000000 1.570950 -0.582647
v -0.291323 1.570950 -0.504587
v -0.504587 1.570950 -0.291323
v -0.582647 1.570950 0.000000
v -0.504587 1.570950 0.291323
v -0.291323 1.570950 0.504587
v 0.000000 1.570950 0.582647
v 0.291323 1.570950 0.504587
v 0.504587 1.570950 0.291323
v 0.582647 1.570950 0.000000
v -0.000000 0.003856 0.000000
v 0.504587 1.743798 -0.291323
v 0.291323 1.743798 -0.504587
v 0.000000 1.743798 -0.582647
v -0.291323 1.743798 -0.504587
v -0.504587 1.743798 -0.291323
v -0.582647 1.743798 0.000000
v -0.504587 1.743798 0.291323
v -0.291323 1.743798 0.504587
v 0.000000 1.743798 0.582647
v 0.291323 1.743798 0.504587
v 0.504587 1.743798 0.291323
v 0.582647 1.743798 0.000000
v 0.000000 1.743798 0.000000
v 0.491937 1.551100 -0.284020
v 0.568040 1.551100 0.000000
v 0.491937 1.551100 0.284020
v 0.284020 1.551100 0.491937
v 0.000000 1.551100 0.568040
v -0.284020 1.551100 0.491937
v -0.491937 1.551100 0.284020
v -0.568040 1.551100 0.000000
v -0.491937 1.551100 -0.284020
v -0.284020 1.551100 -0.491937
v 0.000000 1.551100 -0.568040
v 0.284020 1.551100 -0.491937
v 0.649192 1.401759 -0.374811
v 0.749622 1.401759 0.000000
v 0.649192 1.401759 0.374811
v 0.374811 1.401759 0.649192
v 0.000000 1.401759 0.749622
v -0.374811 1.401759 0.649192
v -0.649192 1.401759 0.374811
v -0.749622 1.401759 0.000000
v -0.649192 1.401759 -0.374811
v -0.374811 1.401759 -0.649192
v 0.000000 1.401759 -0.749622
v 0.374811 1.401759 -0.649192
vt 0.059849 0.633138
vt 0.112390 0.594282
vt 0.210349 0.737807
vt 0.139457 0.795798
vt 0.163668 0.549079
vt 0.277545 0.678455
vt 0.212795 0.500696
vt 0.343758 0.617567
vt 0.257448 0.450511
vt 0.410875 0.553995
vt 0.417239 0.303508
vt 0.477683 0.484144
vt 0.466581 0.269730
vt 0.568275 0.419769
vt 0.513202 0.223858
vt 0.630401 0.352361
vt 0.557683 0.171873
vt 0.688672 0.284123
vt 0.599586 0.117038
vt 0.745754 0.214500
vt 0.636803 0.061045
vt 0.803356 0.142091
vt 0.006310 0.659650
vt 0.859772 0.063503
vt 0.240965 0.774143
vt 0.170276 0.835196
vt 0.308641 0.713644
vt 0.375634 0.652362
vt 0.445100 0.589977
vt 0.537099 0.529027
vt 0.604340 0.454492
vt 0.665835 0.384079
vt 0.724422 0.314636
vt 0.782221 0.244514
vt 0.842317 0.172952
vt 0.093325 0.899522
vt 0.271452 0.806575
vt 0.203320 0.868329
vt 0.338023 0.746444
vt 0.404130 0.686260
vt 0.472994 0.626919
vt 0.583948 0.560877
vt 0.641733 0.482695
vt 0.700595 0.411945
vt 0.758137 0.343023
vt 0.815213 0.274112
vt 0.875139 0.205651
vt 0.135215 0.937586
vt 0.311266 0.845285
vt 0.249304 0.904623
vt 0.374518 0.787343
vt 0.437574 0.730128
vt 0.502142 0.676591
vt 0.573232 0.636894
vt 0.692391 0.512217
vt 0.745478 0.444725
vt 0.800038 0.378438
vt 0.854506 0.312897
vt 0.910989 0.250790
vt 0.975875 0.201485
vt 0.870472 0.873225
vt 0.459087 0.910707
vt 0.521377 0.897060
vt 0.310867 0.377282
vt 0.378179 0.309970
vt 0.581367 0.875781
vt 0.218917 0.401920
vt 0.638210 0.847161
vt 0.126967 0.377282
vt 0.691022 0.811649
vt 0.059656 0.309970
vt 0.738971 0.769803
vt 0.035018 0.218020
vt 0.781303 0.722283
vt 0.059656 0.126071
vt 0.817352 0.669835
vt 0.126967 0.058759
vt 0.846549 0.613285
vt 0.218917 0.034121
vt 0.868449 0.553515
vt 0.310867 0.058759
vt 0.882886 0.491405
vt 0.378179 0.126071
vt 0.890354 0.426820
vt 0.402817 0.218020
vt 0.218917 0.218020
vt 0.993542 0.252965
vt 0.291777 0.933421
vt 0.939565 0.291909
vt 0.888497 0.347709
vt 0.837287 0.409476
vt 0.786019 0.472487
vt 0.738520 0.534801
vt 0.583505 0.690295
vt 0.524657 0.721268
vt 0.466328 0.769323
vt 0.407024 0.823262
vt 0.347487 0.878422
vt 0.870472 0.986328
vt 0.664496 0.004479
vt 0.060082 0.848928
vt 0.196285 0.971301
vt 0.884940 0.427112
vt 0.395144 0.911428
vt 0.250553 0.989737
vt 0.519935 0.891922
vt 0.458329 0.905439
vt 0.579294 0.870862
vt 0.635538 0.842541
vt 0.687793 0.807400
vt 0.735235 0.765992
vt 0.777119 0.718969
vt 0.812786 0.667072
vt 0.841673 0.611114
vt 0.863342 0.551967
vt 0.877632 0.490523
vt 0.394736 0.916817
vt 0.398317 0.954935
vt 0.927700 0.431369
vt 0.465202 0.947974
vt 0.919783 0.497699
vt 0.904556 0.564191
vt 0.881073 0.628377
vt 0.849716 0.689128
vt 0.810997 0.745475
vt 0.765527 0.796532
vt 0.714022 0.841492
vt 0.657292 0.879650
vt 0.596232 0.910405
vt 0.531819 0.933278
vt 0.945721 0.141693
vt 0.909873 0.099053
vt 0.927024 0.971175
vt 0.813920 0.971175
vt 0.772521 0.929776
vt 0.757369 0.873225
vt 0.772521 0.816673
vt 0.813920 0.775274
vt 0.870472 0.760121
vt 0.927024 0.775274
vt 0.968423 0.816673
vt 0.983576 0.873225
vt 0.968423 0.929776
vt 0.292760 0.398427
vt 0.497062 0.483549
vt 0.649197 0.585728
vt 0.705561 0.596390
vt 0.551768 0.573524
vt 0.522272 0.526324
vn 0.775155 -0.445922 -0.447536
vn 0.447536 -0.445922 -0.775155
vn 0.458528 -0.398758 -0.794194
vn 0.794194 -0.398758 -0.458528
vn 0.000000 -0.445922 -0.895072
vn 0.000000 -0.398758 -0.917056
vn -0.447536 -0.445922 -0.775155
vn -0.458528 -0.398758 -0.794194
vn -0.775155 -0.445922 -0.447536
vn -0.794194 -0.398758 -0.458528
vn -0.895072 -0.445922 0.000000
vn -0.917056 -0.398758 0.000000
vn -0.775155 -0.445922 0.447536
vn -0.794194 -0.398758 0.458528
vn -0.447536 -0.445922 0.775155
vn -0.458528 -0.398758 0.794194
vn 0.000000 -0.445922 0.895072
vn -0.000000 -0.398758 0.917056
vn 0.447536 -0.445922 0.775155
vn 0.458528 -0.398758 0.794194
vn 0.775155 -0.445922 0.447536
vn 0.794194 -0.398758 0.458528
vn 0.895072 -0.445922 -0.000000
vn 0.917056 -0.398758 -0.000000
vn 0.499739 -0.032283 -0.865574
vn 0.865574 -0.032283 -0.499739
vn 0.000000 -0.032283 -0.999479
vn -0.499739 -0.032283 -0.865574
vn -0.865574 -0.032283 -0.499739
vn -0.999479 -0.032283 -0.000000
vn -0.865574 -0.032283 0.499739
vn -0.499739 -0.032283 0.865574
vn -0.000000 -0.032283 0.999479
vn 0.499739 -0.032283 0.865574
vn 0.865574 -0.032283 0.499739
vn 0.999479 -0.032283 0.000000
vn 0.454877 0.415147 -0.787871
vn 0.787871 0.415147 -0.454877
vn 0.000000 0.415147 -0.909755
vn -0.454877 0.415147 -0.787871
vn -0.787871 0.415147 -0.454877
vn -0.909755 0.415147 -0.000000
vn -0.787871 0.415147 0.454877
vn -0.454877 0.415147 0.787871
vn 0.000000 0.415147 0.909755
vn 0.454877 0.415147 0.787871
vn 0.787871 0.415147 0.454877
vn 0.909755 0.415147 0.000000
vn 0.376160 0.658798 -0.651529
vn 0.651529 0.658798 -0.376160
vn 0.000000 0.658798 -0.752320
vn -0.376160 0.658798 -0.651529
vn -0.651529 0.658798 -0.376160
vn -0.752320 0.658798 -0.000000
vn -0.651529 0.658797 0.376160
vn -0.376160 0.658798 0.651529
vn 0.000000 0.658798 0.752320
vn 0.376160 0.658798 0.651529
vn 0.651529 0.658798 0.376160
vn 0.752320 0.658798 0.000000
vn 0.000000 -1.000000 0.000000
vn 0.000000 -1.000000 0.000000
vn 0.000000 -1.000000 -0.000000
vn 0.000000 -1.000000 0.000000
vn 0.000000 -1.000000 0.000000
vn 0.000000 -1.000000 0.000000
vn 0.000000 -1.000000 -0.000000
vn 0.000000 -1.000000 0.000000
vn 0.000000 -1.000000 0.000000
vn 0.000000 -1.000000 -0.000000
vn 0.000000 -1.000000 0.000000
vn 0.000000 -1.000000 0.000000
vn 0.000000 -1.000000 0.000000
vn 0.707107 0.000000 -0.707107
vn 0.707107 0.000000 -0.707107
vn 0.707107 0.000000 -0.707107
vn 0.707107 0.000000 -0.707107
vn 0.258819 0.000000 -0.965926
vn 0.258819 0.000000 -0.965926
vn 0.258819 0.000000 -0.965926
vn 0.258819 0.000000 -0.965926
vn -0.258819 0.000000 -0.965926
vn -0.258819 0.000000 -0.965926
vn -0.258819 0.000000 -0.965926
vn -0.258819 0.000000 -0.965926
vn -0.707107 0.000000 -0.707107
vn -0.707107 0.000000 -0.707107
vn -0.707107 0.000000 -0.707107
vn -0.707107 0.000000 -0.707107
vn -0.965926 0.000000 -0.258819
vn -0.965926 0.000000 -0.258819
vn -0.965926 0.000000 -0.258819
vn -0.965926 0.000000 -0.258819
vn -0.965926 0.000000 0.258819
vn -0.965926 0.000000 0.258819
vn -0.965926 0.000000 0.258819
vn -0.965926 0.000000 0.258819
vn -0.707107 0.000000 0.707107
vn -0.707107 0.000000 0.707107
vn -0.707107 0.000000 0.707107
vn -0.707107 0.000000 0.707107
vn -0.258819 0.000000 0.965926
vn -0.258819 0.000000 0.965926
vn -0.258819 0.000000 0.965926
vn -0.258819 0.000000 0.965926
vn 0.258819 0.000000 0.965926
vn 0.258819 0.000000 0.965926
vn 0.258819 0.000000 0.965926
vn 0.258819 0.000000 0.965926
vn 0.707107 0.000000 0.707107
vn 0.707107 0.000000 0.707107
vn 0.707107 0.000000 0.707107
vn 0.707107 0.000000 0.707107
vn 0.965926 0.000000 0.258819
vn 0.965926 0.000000 0.258819
vn 0.965926 0.000000 0.258819
vn 0.965926 0.000000 0.258819
vn 0.965926 0.000000 -0.258819
vn 0.965926 0.000000 -0.258819
vn 0.965926 0.000000 -0.258819
vn 0.965926 0.000000 -0.258819
vn 0.000000 1.000000 0.000000
vn 0.000000 1.000000 0.000000
vn 0.000000 1.000000 0.000000
vn 0.000000 1.000000 0.000000
vn 0.000000 1.000000 0.000000
vn 0.000000 1.000000 0.000000
vn 0.000000 1.000000 0.000000
vn 0.000000 1.000000 0.000000
vn 0.000000 1.000000 0.000000
vn 0.000000 1.000000 0.000000
vn 0.000000 1.000000 0.000000
vn 0.000000 1.000000 0.000000
vn 0.000000 1.000000 0.000000
vn 0.805424 -0.592699 0.000000
vn 0.697517 -0.592700 -0.402712
vn 0.697517 -0.592700 -0.402712
vn 0.805424 -0.592699 0.000000
vn 0.697517 -0.592699 0.402712
vn 0.697517 -0.592699 0.402712
vn 0.402711 -0.592700 0.697517
vn 0.402711 -0.592700 0.697517
vn 0.000000 -0.592700 0.805424
vn 0.000000 -0.592700 0.805424
vn -0.402711 -0.592700 0.697517
vn -0.402711 -0.592700 0.697517
vn -0.697517 -0.592700 0.402712
vn -0.697517 -0.592700 0.402712
vn -0.805424 -0.592699 -0.000000
vn -0.805424 -0.592699 -0.000000
vn -0.697517 -0.592699 -0.402712
vn -0.697517 -0.592699 -0.402712
vn -0.402711 -0.592700 -0.697517
vn -0.402711 -0.592700 -0.697517
vn -0.000000 -0.592700 -0.805424
vn -0.000000 -0.592700 -0.805424
vn 0.402711 -0.592700 -0.697517
vn 0.402711 -0.592700 -0.697517
vn 0.550107 0.772340 -0.317605
vn 0.635209 0.772340 0.000000
vn 0.550107 0.772340 0.317605
vn 0.317605 0.772340 0.550107
vn -0.000000 0.772340 0.635209
vn -0.317605 0.772340 0.550107
vn -0.550107 0.772340 0.317605
vn -0.635209 0.772340 -0.000000
vn -0.550107 0.772340 -0.317605
vn -0.317605 0.772340 -0.550107
vn 0.000000 0.772340 -0.635209
vn 0.317605 0.772340 -0.550107
s 1
g medicine_jar
usemtl lambert2SG
f 1/1/1 2/2/2 14/3/3 13/4/4
f 2/2/2 3/5/5 15/6/6 14/3/3
f 3/5/5 4/7/7 16/8/8 15/6/6
f 4/7/7 5/9/9 17/10/10 16/8/8
f 5/9/9 6/144/11 18/12/12 17/10/10
f 6/11/11 7/13/13 19/14/14 18/145/12
f 7/13/13 8/15/15 20/16/16 19/14/14
f 8/15/15 9/17/17 21/18/18 20/16/16
f 9/17/17 10/19/19 22/20/20 21/18/18
f 10/19/19 11/21/21 23/22/22 22/20/20
f 11/21/21 12/100/23 24/24/24 23/22/22
f 12/23/23 1/1/1 13/4/4 24/101/24
f 13/4/4 14/3/3 26/25/25 25/26/26
f 14/3/3 15/6/6 27/27/27 26/25/25
f 15/6/6 16/8/8 28/28/28 27/27/27
f 16/8/8 17/10/10 29/29/29 28/28/28
f 17/10/10 18/12/12 30/149/30 29/29/29
f 18/145/12 19/14/14 31/31/31 30/30/30
f 19/14/14 20/16/16 32/32/32 31/31/31
f 20/16/16 21/18/18 33/33/33 32/32/32
f 21/18/18 22/20/20 34/34/34 33/33/33
f 22/20/20 23/22/22 35/35/35 34/34/34
f 23/22/22 24/24/24 36/132/36 35/35/35
f 24/101/24 13/4/4 25/26/26 36/36/36
f 25/26/26 26/25/25 38/37/37 37/38/38
f 26/25/25 27/27/27 39/39/39 38/37/37
f 27/27/27 28/28/28 40/40/40 39/39/39
f 28/28/28 29/29/29 41/41/41 40/40/40
f 29/29/29 30/149/30 42/148/42 41/41/41
f 30/30/30 31/31/31 43/43/43 42/42/42
f 31/31/31 32/32/32 44/44/44 43/43/43
f 32/32/32 33/33/33 45/45/45 44/44/44
f 33/33/33 34/34/34 46/46/46 45/45/45
f 34/34/34 35/35/35 47/47/47 46/46/46
f 35/35/35 36/132/36 48/131/48 47/47/47
f 36/36/36 25/26/26 37/38/38 48/48/48
f 37/38/38 38/37/37 98/49/49 87/50/50
f 38/37/37 39/39/39 97/51/51 98/49/49
f 39/39/39 40/40/40 96/52/52 97/51/51
f 40/40/40 41/41/41 95/53/53 96/52/52
f 41/41/41 42/148/42 94/54/54 95/53/53
f 42/42/42 43/43/43 93/55/55 94/146/54
f 43/43/43 44/44/44 92/56/56 93/55/55
f 44/44/44 45/45/45 91/57/57 92/56/56
f 45/45/45 46/46/46 90/58/58 91/57/57
f 46/46/46 47/47/47 89/59/59 90/58/58
f 47/47/47 48/131/48 88/60/60 89/59/59
f 48/48/48 37/38/38 87/50/50 88/102/60
s 2
f 2/143/61 1/133/62 61/61/63
f 3/142/64 61/61/63 4/141/65
f 61/61/63 11/134/66 10/135/67
f 5/140/68 61/61/63 6/139/69
f 61/61/63 10/135/67 9/136/70
f 4/141/65 61/61/63 5/140/68
f 61/61/63 1/133/62 12/99/71
f 8/137/72 61/61/63 9/136/70
f 7/138/73 61/61/63 8/137/72
f 2/143/61 61/61/63 3/142/64
f 61/61/63 12/99/71 11/134/66
f 6/139/69 61/61/63 7/138/73
s off
f 49/62/74 50/63/75 63/130/76 62/120/77
f 50/63/78 51/66/79 64/129/80 63/130/81
f 51/66/82 52/68/83 65/128/84 64/129/85
f 52/68/86 53/70/87 66/127/88 65/128/89
f 53/70/90 54/72/91 67/126/92 66/127/93
f 54/72/94 55/74/95 68/125/96 67/126/97
f 55/74/98 56/76/99 69/124/100 68/125/101
f 56/76/102 57/78/103 70/123/104 69/124/105
f 57/78/106 58/80/107 71/122/108 70/123/109
f 58/80/110 59/82/111 72/121/112 71/122/113
f 59/82/114 60/84/115 73/119/116 72/121/117
f 60/117/118 49/62/119 62/120/120 73/118/121
s 4
f 68/75/122 74/86/123 67/73/124
f 73/85/125 74/86/123 72/83/126
f 63/64/127 74/86/123 62/65/128
f 66/71/129 74/86/123 65/69/130
f 70/79/131 74/86/123 69/77/132
f 62/65/128 74/86/123 73/85/125
f 63/64/127 64/67/133 74/86/123
f 69/77/132 74/86/123 68/75/122
f 67/73/124 74/86/123 66/71/129
f 71/81/134 74/86/123 70/79/131
f 72/83/126 74/86/123 71/81/134
f 65/69/130 74/86/123 64/67/133
s 8
f 76/104/135 75/107/136 49/62/137 60/117/138
f 77/116/139 76/103/135 60/84/138 59/82/140
f 78/115/141 77/116/139 59/82/140 58/80/142
f 79/114/143 78/115/141 58/80/142 57/78/144
f 80/113/145 79/114/143 57/78/144 56/76/146
f 81/112/147 80/113/145 56/76/146 55/74/148
f 82/111/149 81/112/147 55/74/148 54/72/150
f 83/110/151 82/111/149 54/72/150 53/70/152
f 84/109/153 83/110/151 53/70/152 52/68/154
f 85/108/155 84/109/153 52/68/154 51/66/156
f 86/106/157 85/108/155 51/66/156 50/63/158
f 75/107/136 86/106/157 50/63/158 49/62/137
s 1
f 88/102/60 87/50/50 75/88/159 76/105/160
f 89/59/59 88/60/60 76/87/160 77/89/161
f 90/58/58 89/59/59 77/89/161 78/90/162
f 91/57/57 90/58/58 78/90/162 79/91/163
f 92/56/56 91/57/57 79/91/163 80/92/164
f 93/55/55 92/56/56 80/92/164 81/93/165
f 94/146/54 93/55/55 81/93/165 82/147/166
f 95/53/53 94/54/54 82/94/166 83/95/167
f 96/52/52 95/53/53 83/95/167 84/96/168
f 97/51/51 96/52/52 84/96/168 85/97/169
f 98/49/49 97/51/51 85/97/169 86/98/170
f 87/50/50 98/49/49 86/98/170 75/88/159
